<mxfile host="app.diagrams.net" modified="2024-06-24T12:49:22.053Z" agent="Mozilla/5.0 (Windows NT 10.0; Win64; x64) AppleWebKit/537.36 (KHTML, like Gecko) Chrome/126.0.0.0 Safari/537.36" version="24.4.9" etag="5mRhaDUXplsJqIyeXA28" type="github">
  <diagram name="Страница — 1" id="8maHdUgIGJYUo5LPU9tT">
    <mxGraphModel>
      <root>
        <mxCell id="0" />
        <mxCell id="1" parent="0" />
      </root>
    </mxGraphModel>
  </diagram>
</mxfile>
